<svg preserveAspectRatio="none" width="100%" height="100%" overflow="visible" style="display: block;" viewBox="0 0 15 15" fill="none" xmlns="http://www.w3.org/2000/svg">
<path id="Union" d="M15 11.7861C14.9998 13.561 13.561 14.9998 11.7861 15H3.21387C1.439 14.9998 0.000226523 13.561 0 11.7861V5.68555H15V11.7861ZM10.5576 7.99805C10.2806 7.69048 9.80589 7.66562 9.49805 7.94238L6.66504 10.4902L5.50195 9.44238C5.19427 9.16555 4.71955 9.19061 4.44238 9.49805C4.16541 9.80573 4.19055 10.2804 4.49805 10.5576L6.16309 12.0576C6.44819 12.3141 6.8808 12.314 7.16602 12.0576L10.502 9.05762C10.8096 8.78057 10.8345 8.30589 10.5576 7.99805ZM10.8213 0C11.3537 0 11.7859 0.431499 11.7861 0.963867V2.14258C13.1848 2.14276 14.3737 3.03761 14.8154 4.28516H0.18457C0.626261 3.03761 1.81517 2.14276 3.21387 2.14258V0.963867C3.21409 0.431499 3.64629 0 4.17871 0C4.71107 7.54468e-05 5.14235 0.431546 5.14258 0.963867V2.14258H9.85742V0.963867C9.85765 0.431616 10.289 0.000188443 10.8213 0Z" fill="var(--fill-0, black)"/>
</svg>
