<svg preserveAspectRatio="none" width="100%" height="100%" overflow="visible" style="display: block;" viewBox="0 0 15 15" fill="none" xmlns="http://www.w3.org/2000/svg">
<path id="Subtract" d="M7.5 0C11.6355 3.233e-08 15 3.36454 15 7.5C15 11.6355 11.6355 15 7.5 15C3.36454 15 0 11.6355 0 7.5C3.8796e-07 3.36454 3.36454 0 7.5 0ZM11 10C10.4477 10 10 10.4477 10 11C10 11.5523 10.4477 12 11 12C11.5523 12 12 11.5523 12 11C12 10.4477 11.5523 10 11 10ZM10.9141 3.71094L6.6875 5.40137C6.39726 5.51744 6.13412 5.69206 5.91309 5.91309C5.69206 6.13412 5.51744 6.39726 5.40137 6.6875L3.71094 10.9141C3.69015 10.9663 3.68498 11.024 3.69629 11.0791C3.70767 11.1343 3.73553 11.1847 3.77539 11.2246C3.81525 11.2645 3.86569 11.2923 3.9209 11.3037C3.97601 11.315 4.03367 11.3099 4.08594 11.2891L8.3125 9.59863C8.60274 9.48256 8.86588 9.30794 9.08691 9.08691C9.30794 8.86588 9.48256 8.60274 9.59863 8.3125L11.2891 4.08594C11.3099 4.03367 11.315 3.97601 11.3037 3.9209C11.2923 3.86569 11.2645 3.81525 11.2246 3.77539C11.1847 3.73553 11.1343 3.70767 11.0791 3.69629C11.024 3.68498 10.9663 3.69015 10.9141 3.71094ZM4 3C3.44772 3 3 3.44772 3 4C3 4.55228 3.44772 5 4 5C4.55228 5 5 4.55228 5 4C5 3.44772 4.55228 3 4 3Z" fill="var(--fill-0, #111212)"/>
</svg>
