<svg preserveAspectRatio="none" width="100%" height="100%" overflow="visible" style="display: block;" viewBox="0 0 16 14.4006" fill="none" xmlns="http://www.w3.org/2000/svg">
<path id="Subtract" d="M11.5996 0C14.0297 0 16 1.96999 16 4.40039C15.9999 6.94748 14.5495 9.35087 12.1504 11.5508C11.3315 12.3012 10.4496 12.9596 9.5752 13.5508C9.26872 13.7572 8.98157 13.9446 8.72461 14.1006C8.56858 14.1954 8.4654 14.2638 8.40039 14.2998C8.15879 14.4342 7.84121 14.4342 7.59961 14.2998C7.5346 14.2638 7.43142 14.1954 7.27539 14.1006C7.01843 13.9446 6.73128 13.7572 6.4248 13.5508C5.55041 12.9596 4.66848 12.3012 3.84961 11.5508C1.45054 9.35087 8.05981e-05 6.94748 0 4.40039C0 1.96999 1.97031 0 4.40039 0C5.85616 0.000131036 7.19922 0.732907 8.02539 1.84961C8.87269 0.752283 10.2197 0.00014192 11.5996 0ZM7.39941 4.20117C7.28917 4.20133 7.20032 4.29111 7.2002 4.40137V6.20215C7.2 6.31234 7.1102 6.40121 7 6.40137H5.20117C5.09092 6.40152 5.00207 6.49131 5.00195 6.60156V7.80176C5.00215 7.91195 5.09097 8.00082 5.20117 8.00098H7C7.11025 8.00113 7.20008 8.09091 7.2002 8.20117V10.001C7.20039 10.1112 7.28921 10.2 7.39941 10.2002H8.59961C8.70981 10.2 8.79961 10.1112 8.7998 10.001V8.20117C8.79993 8.09092 8.88878 8.00113 8.99902 8.00098H10.8018C10.912 8.00082 11.0018 7.91195 11.002 7.80176V6.60156C11.0018 6.49131 10.912 6.40152 10.8018 6.40137H8.99902C8.88882 6.40121 8.8 6.31234 8.7998 6.20215V4.40137C8.79968 4.29111 8.70986 4.20133 8.59961 4.20117H7.39941Z" fill="var(--fill-0, #111212)"/>
</svg>
