<svg preserveAspectRatio="none" width="100%" height="100%" overflow="visible" style="display: block;" viewBox="0 0 15.6 15.6" fill="none" xmlns="http://www.w3.org/2000/svg">
<path id="Vector" fill-rule="evenodd" clip-rule="evenodd" d="M7.8 0C7.96949 3.49449e-05 8.13436 0.0552727 8.26967 0.157355C8.40497 0.259438 8.50334 0.402811 8.54989 0.56578L9.39548 3.52573C9.57754 4.16318 9.9191 4.74371 10.3879 5.21249C10.8567 5.68126 11.4372 6.02281 12.0747 6.20486L15.0348 7.05041C15.1976 7.09707 15.3409 7.19548 15.4429 7.33077C15.5448 7.46606 15.6 7.63087 15.6 7.80028C15.6 7.9697 15.5448 8.13451 15.4429 8.26979C15.3409 8.40508 15.1976 8.50349 15.0348 8.55015L12.0747 9.3957C11.4372 9.57776 10.8567 9.9193 10.3879 10.3881C9.9191 10.8568 9.57754 11.4374 9.39548 12.0748L8.54989 15.0348C8.50324 15.1976 8.40482 15.3409 8.26953 15.4429C8.13424 15.5448 7.96942 15.6 7.8 15.6C7.63058 15.6 7.46576 15.5448 7.33047 15.4429C7.19518 15.3409 7.09676 15.1976 7.05011 15.0348L6.20453 12.0748C6.02246 11.4374 5.6809 10.8568 5.21211 10.3881C4.74332 9.9193 4.16277 9.57776 3.52529 9.3957L0.565239 8.55015C0.402368 8.50349 0.259115 8.40508 0.157137 8.26979C0.0551587 8.13451 0 7.9697 0 7.80028C0 7.63087 0.0551587 7.46606 0.157137 7.33077C0.259115 7.19548 0.402368 7.09707 0.565239 7.05041L3.52529 6.20486C4.16277 6.02281 4.74332 5.68126 5.21211 5.21249C5.6809 4.74371 6.02246 4.16318 6.20453 3.52573L7.05011 0.56578C7.09666 0.402811 7.19503 0.259438 7.33033 0.157355C7.46563 0.0552727 7.63051 3.49449e-05 7.8 0Z" fill="var(--fill-0, #111212)"/>
</svg>
